<svg xmlns="http://www.w3.org/2000/svg">
  <!-- CAT - Special -->
  <symbol viewBox="0 0 150 150" id="icon-cat-special" preserveAspectRatio="xMidYMid">
    <path class="st0" d="M146.25,150H3.75C1.68,150,0,148.32,0,146.25V3.75C0,1.68,1.68,0,3.75,0h142.5c2.07,0,3.75,1.68,3.75,3.75
      v142.5C150,148.32,148.32,150,146.25,150z M7.5,142.5h135V7.5H7.5V142.5z"/>
    <path class="st0" d="M46.22,63.75H26.25c-2.07,0-3.75-1.68-3.75-3.75s1.68-3.75,3.75-3.75h19.97c2.07,0,3.75,1.68,3.75,3.75
      S48.29,63.75,46.22,63.75z"/>
    <path class="st0" d="M46.22,48.75H26.25c-2.07,0-3.75-1.68-3.75-3.75V26.25c0-2.07,1.68-3.75,3.75-3.75h19.97
      c2.07,0,3.75,1.68,3.75,3.75V45C49.97,47.07,48.29,48.75,46.22,48.75z M30,41.25h12.47V30H30V41.25z"/>
    <path class="st0" d="M46.22,127.5H26.25c-2.07,0-3.75-1.68-3.75-3.75s1.68-3.75,3.75-3.75h19.97c2.07,0,3.75,1.68,3.75,3.75
      S48.29,127.5,46.22,127.5z"/>
    <path class="st0" d="M46.22,112.5H26.25c-2.07,0-3.75-1.68-3.75-3.75V90c0-2.07,1.68-3.75,3.75-3.75h19.97
      c2.07,0,3.75,1.68,3.75,3.75v18.75C49.97,110.82,48.29,112.5,46.22,112.5z M30,105h12.47V93.75H30V105z"/>
    <path class="st0" d="M83.72,63.75H63.75C61.68,63.75,60,62.07,60,60s1.68-3.75,3.75-3.75h19.97c2.07,0,3.75,1.68,3.75,3.75
      S85.79,63.75,83.72,63.75z"/>
    <path class="st0" d="M83.72,48.75H63.75C61.68,48.75,60,47.07,60,45V26.25c0-2.07,1.68-3.75,3.75-3.75h19.97
      c2.07,0,3.75,1.68,3.75,3.75V45C87.47,47.07,85.79,48.75,83.72,48.75z M67.5,41.25h12.47V30H67.5V41.25z"/>
    <path class="st0" d="M83.72,127.5H63.75c-2.07,0-3.75-1.68-3.75-3.75s1.68-3.75,3.75-3.75h19.97c2.07,0,3.75,1.68,3.75,3.75
      S85.79,127.5,83.72,127.5z"/>
    <path class="st0" d="M83.72,112.5H63.75c-2.07,0-3.75-1.68-3.75-3.75V90c0-2.07,1.68-3.75,3.75-3.75h19.97
      c2.07,0,3.75,1.68,3.75,3.75v18.75C87.47,110.82,85.79,112.5,83.72,112.5z M67.5,105h12.47V93.75H67.5V105z"/>
    <path class="st0" d="M121.22,63.75h-19.97c-2.07,0-3.75-1.68-3.75-3.75s1.68-3.75,3.75-3.75h19.97c2.07,0,3.75,1.68,3.75,3.75
      S123.29,63.75,121.22,63.75z"/>
    <path class="st0" d="M121.22,48.75h-19.97c-2.07,0-3.75-1.68-3.75-3.75V26.25c0-2.07,1.68-3.75,3.75-3.75h19.97
      c2.07,0,3.75,1.68,3.75,3.75V45C124.97,47.07,123.29,48.75,121.22,48.75z M105,41.25h12.47V30H105V41.25z"/>
    <path class="st0" d="M121.22,127.5h-19.97c-2.07,0-3.75-1.68-3.75-3.75s1.68-3.75,3.75-3.75h19.97c2.07,0,3.75,1.68,3.75,3.75
      S123.29,127.5,121.22,127.5z"/>
    <path class="st0" d="M121.22,112.5h-19.97c-2.07,0-3.75-1.68-3.75-3.75V90c0-2.07,1.68-3.75,3.75-3.75h19.97
      c2.07,0,3.75,1.68,3.75,3.75v18.75C124.97,110.82,123.29,112.5,121.22,112.5z M105,105h12.47V93.75H105V105z"/>
  </symbol>
</svg>
