<svg xmlns="http://www.w3.org/2000/svg">

  <!-- PHONE -->
  <symbol viewBox="0 0 450 450" id="icon-phone" preserveAspectRatio="xMidYMid">
    <path d="M296.1,23.7H154.5c-28,0-50.4,22.5-50.4,50.4v302.4c0,28,22.9,50.4,50.4,50.4h141.6c28,0,50.4-22.5,50.4-50.4V74.1
			C346.5,46.1,324,23.7,296.1,23.7z M323.6,324.3H127V91h196.6V324.3z"/>
  </symbol>

  <!-- DESKTOP -->
  <symbol viewBox="0 0 503 503" id="icon-desktop" preserveAspectRatio="xMidYMid">
    <path d="M468,39.4H35.8c-19.7,0-35.7,16-35.7,35.7L0,369.5c0,19.7,16,35.7,35.7,35.7h141.4v35.4h-27.6c-2.2,0-3.9,1.8-3.9,4v15.5
			c0,2.2,1.7,4.1,3.9,4.1h204c2.2,0,4.6-1.9,4.6-4.1v-15.5c0-2.2-2.4-4-4.6-4h-26.9v-35.4h141.3c19.7,0,35.7-16.1,35.7-35.7
			l0.1-294.4C503.7,55.4,487.7,39.4,468,39.4z M472.2,326.6H31.5V70.8h440.6V326.6z"/>
  </symbol>

  <!-- SETTINGS -->
  <symbol viewBox="0 0 100 100" id="icon-settings" preserveAspectRatio="xMidYMid">
    <path d="M97.78,41.3l-11.47-2.8c-0.69-2.18-1.58-4.28-2.64-6.3L89,23.28c0.69-1.15,0.51-2.63-0.44-3.58
    l-8.28-8.29c-0.95-0.95-2.43-1.14-3.58-0.44l-8.92,5.34c-2.01-1.06-4.12-1.94-6.29-2.63L58.7,2.22C58.37,0.92,57.2,0,55.86,0H44.14
    c-1.34,0-2.52,0.92-2.84,2.22c0,0-1.96,8-2.82,11.47c-2.3,0.73-4.53,1.68-6.65,2.83l-9.24-5.54c-1.15-0.69-2.63-0.51-3.58,0.44
    l-8.28,8.29c-0.95,0.95-1.13,2.43-0.44,3.58L16,32.83c-0.92,1.82-1.69,3.7-2.31,5.65L2.22,41.3C0.92,41.63,0,42.8,0,44.14v11.72
    c0,1.34,0.92,2.52,2.22,2.84l11.48,2.82c0.7,2.21,1.6,4.36,2.7,6.41l-5.12,8.53c-0.69,1.15-0.51,2.63,0.44,3.58L20,88.32
    c0.95,0.95,2.43,1.13,3.58,0.44l8.55-5.12c2.03,1.08,4.16,1.98,6.35,2.68l2.82,11.47c0.33,1.3,1.5,2.22,2.84,2.22h11.72
    c1.34,0,2.51-0.92,2.84-2.22l2.82-11.47c2.25-0.71,4.43-1.64,6.5-2.76l8.68,5.21c1.15,0.69,2.63,0.51,3.58-0.44l8.28-8.29
    c0.95-0.95,1.13-2.43,0.44-3.58l-5.26-8.78c1.04-1.97,1.9-4.03,2.57-6.15l11.47-2.82c1.3-0.33,2.22-1.5,2.22-2.84V44.14
    C100,42.8,99.08,41.63,97.78,41.3z M50,70.5c-11.32,0-20.5-9.18-20.5-20.5c0-11.32,9.18-20.5,20.5-20.5
    c11.32,0,20.5,9.18,20.5,20.5C70.48,61.31,61.31,70.48,50,70.5z"/>
  </symbol>

  <!-- SETTINGS LOCK -->
  <symbol viewBox="0 0 100 100" id="icon-settings-lock" preserveAspectRatio="xMidYMid">
    <path d="M38.2,66.8c-5.3-3.7-8.7-9.8-8.7-16.8c0-11.3,9.2-20.5,20.5-20.5c1.2,0,2.4,0.1,3.5,0.3C58.7,25,65.7,22,73.3,22h0h0
    c5.2,0,10,1.4,14.2,3.7l1.5-2.5c0.7-1.2,0.5-2.6-0.4-3.6l-8.3-8.3c-1-0.9-2.4-1.1-3.6-0.4l-8.9,5.3c-2-1.1-4.1-1.9-6.3-2.6
    L58.7,2.2C58.4,0.9,57.2,0,55.9,0H44.1c-1.3,0-2.5,0.9-2.8,2.2c0,0-2,8-2.8,11.5c-2.3,0.7-4.5,1.7-6.6,2.8L22.6,11
    c-1.2-0.7-2.6-0.5-3.6,0.4l-8.3,8.3c-0.9,0.9-1.1,2.4-0.4,3.6l5.7,9.5c-0.9,1.8-1.7,3.7-2.3,5.6L2.2,41.3C0.9,41.6,0,42.8,0,44.1
    v11.7c0,1.3,0.9,2.5,2.2,2.8l11.5,2.8c0.7,2.2,1.6,4.4,2.7,6.4l-5.1,8.5c-0.7,1.1-0.5,2.6,0.4,3.6l8.3,8.3c1,1,2.4,1.1,3.6,0.4
    l8.5-5.1c2,1,4,1.9,6.1,2.6V66.8z"/>
    <path d="M52.3,51v7.3h-0.5c-3.1,0-5.5,2.5-5.5,5.5v30.6c0,3.1,2.5,5.5,5.5,5.5h42.7c3.1,0,5.5-2.5,5.5-5.5V63.9
    c0-3.1-2.5-5.5-5.5-5.5h-0.1V51c0-11.6-9.4-21-21-21C61.7,30,52.3,39.4,52.3,51z M76.4,80.5c-0.4,0.3-0.5,0.6-0.5,1.1
    c0,2.2,0,4.5,0,6.7l0,0c0,0.9-0.4,1.8-1.3,2.3c-2,1-3.9-0.4-3.9-2.3v0c0-2.2,0-4.5,0-6.7c0-0.5-0.1-0.8-0.5-1.1
    c-2-1.5-2.7-4.1-1.7-6.3c1-2.2,3.4-3.5,5.7-3c2.5,0.5,4.3,2.5,4.3,5.1C78.5,78.1,77.8,79.5,76.4,80.5z M61.5,51
    c0-6.5,5.3-11.8,11.8-11.8c6.5,0,11.8,5.3,11.8,11.8v7.3H61.5V51z"/>
  </symbol>

  <!-- CLOSE -->
  <symbol viewBox="0 0 100 100" id="icon-close" preserveAspectRatio="xMidYMid">
    <path d="M57.08,50l31.46-31.46c1.95-1.95,1.95-5.12,0-7.07c-1.95-1.95-5.12-1.95-7.07,0L50,42.93L18.54,11.47
    c-1.95-1.95-5.12-1.95-7.07,0c-1.95,1.95-1.95,5.12,0,7.07L42.93,50L11.46,81.46c-1.95,1.95-1.95,5.12,0,7.07
    C12.44,89.51,13.72,90,15,90s2.56-0.49,3.54-1.47L50,57.07l31.46,31.46C82.44,89.51,83.72,90,85,90c1.28,0,2.56-0.49,3.54-1.47
    c1.95-1.95,1.95-5.12,0-7.07L57.08,50z"/>
  </symbol>

  <!-- DOCUMENT -->
  <symbol viewBox="0 0 100 100" id="icon-document" preserveAspectRatio="xMidYMid">
    <path  d="M79.79,29.79L63.54,13.54c-1.89-1.81-4.29-2.99-6.88-3.38v26.51h26.51
        C82.79,34.08,81.61,31.67,79.79,29.79z"/>
    <path d="M55,43.35c-2.75,0.01-4.99-2.21-5-4.96c0-0.01,0-0.03,0-0.04V10H21.67
        c-1.33-0.02-2.61,0.5-3.54,1.46c-0.95,0.93-1.48,2.21-1.46,3.54V85c-0.01,2.75,2.21,4.99,4.96,5c0.01,0,0.03,0,0.04,0h56.66
        c2.75,0.01,4.99-2.22,5-4.97c0-0.01,0-0.02,0-0.03V43.31L55,43.35z"/>
  </symbol>

  <!-- ZOOM -->
  <symbol viewBox="0 0 100 100" id="icon-zoom" preserveAspectRatio="xMidYMid">
    <path d="M50.14,27.63H38.87v11.23H27.62v11.26h11.26v11.26h11.26V50.13h11.26V38.87H50.14V27.63z
       M93.09,83.3L76.83,67.04c12.47-17.87,8.08-42.47-9.79-54.94S24.56,4.02,12.1,21.89s-8.08,42.47,9.79,54.94
      c13.56,9.46,31.58,9.46,45.15,0L83.3,93.09c2.77,2.64,7.16,2.53,9.8-0.24C95.64,90.17,95.64,85.97,93.09,83.3L93.09,83.3z
       M44.51,72.69c-15.55,0-28.15-12.6-28.15-28.15S28.96,16.4,44.51,16.4c15.53,0,28.12,12.58,28.15,28.1
      c0,15.54-12.6,28.14-28.15,28.15V72.69z"/>
  </symbol>

  <!-- DUPLICATE -->
  <symbol viewBox="0 0 100 100" id="icon-duplicate" preserveAspectRatio="xMidYMid">
    <polygon class="st0" points="63.12,41.25 63.12,63.12 41.25,63.12 41.25,85 85,85 85,41.25  "/>
    <rect x="15" y="15" class="st0" width="43.75" height="43.75"/>
  </symbol>

  <!-- CHECK -->
  <symbol viewBox="0 0 426.667 426.667" id="icon-checkmark" preserveAspectRatio="xMidYMid">
    <polygon points="366.933,42.667 149.333,262.4 59.733,172.8 0,232.533 149.333,384 426.667,104.533    "/>
  </symbol>

  <!-- WASTE -->
  <symbol viewBox="0 0 100 100" id="icon-waste" preserveAspectRatio="xMidYMid">
    <path d="M28.82,84.57c0.86,3.3,3.91,5.56,7.32,5.43h27.71c3.41,0.14,6.46-2.12,7.32-5.43l5.47-53.19H23.35
    L28.82,84.57z M60.66,39.37c0-1.47,1.19-2.66,2.66-2.66s2.66,1.19,2.66,2.66l-2.66,39.96c0,1.47-1.19,2.66-2.66,2.66
    s-2.66-1.19-2.66-2.66L60.66,39.37z M47.33,39.37c0-1.47,1.19-2.66,2.66-2.66s2.66,1.19,2.66,2.66v39.96
    c0,1.47-1.19,2.66-2.66,2.66s-2.66-1.19-2.66-2.66V39.37z M36.67,36.7c1.47,0,2.66,1.19,2.66,2.66L42,79.33
    C42,80.8,40.81,82,39.33,82s-2.66-1.19-2.66-2.66l-2.66-39.96C34.01,37.9,35.2,36.7,36.67,36.7C36.67,36.7,36.67,36.7,36.67,36.7z
     M75.04,20.73H63.32v-5.34c0-4.04-1.31-5.33-5.33-5.33H42.02c-2.54-0.41-4.93,1.31-5.35,3.85c-0.08,0.49-0.08,0.99,0,1.48v5.33
    H24.96c-2.28-0.07-4.19,1.71-4.26,3.99c0.08,2.28,1.99,4.06,4.26,3.99h50.09c2.28,0.07,4.19-1.71,4.26-3.99
    c-0.08-2.28-1.98-4.07-4.26-4L75.04,20.73z M57.99,20.73H42.02v-5.34h15.97v5.33V20.73z"/>
  </symbol>

  <!-- HIDE -->
  <symbol viewBox="0 0 100 100" id="icon-hide" preserveAspectRatio="xMidYMid">
    <path d="M49.39,37.33l11.45,11.45l0.06-0.6c0-6.02-4.89-10.9-10.91-10.91L49.39,37.33z"/>
    <path d="M49.99,30c10.04,0,18.17,8.14,18.18,18.18c-0.01,2.27-0.44,4.53-1.29,6.64l10.63,10.63
        C83.05,60.83,87.34,54.9,90,48.2c-6.47-16.44-22.34-27.25-40.01-27.27c-4.94,0-9.84,0.86-14.49,2.55l7.85,7.83
        C45.47,30.47,47.72,30.02,49.99,30z"/>
    <path d="M13.63,20.1l8.29,8.29l1.65,1.65C17.51,34.77,12.83,41.03,10,48.18
        c8.66,22.08,33.58,32.96,55.66,24.3c0.09-0.03,0.18-0.07,0.27-0.11l1.55,1.55l10.6,10.62l4.63-4.62L18.27,15.46L13.63,20.1z
         M33.74,40.18l5.61,5.61c-0.17,0.79-0.26,1.59-0.27,2.39c0.01,6.02,4.89,10.89,10.91,10.9c0.8-0.01,1.59-0.1,2.36-0.27l5.61,5.61
        c-2.47,1.25-5.2,1.91-7.97,1.93c-9.97,0.07-18.11-7.96-18.18-17.93C31.8,45.57,32.46,42.74,33.74,40.18L33.74,40.18z"/>
  </symbol>

  <!-- SHOW -->
  <symbol viewBox="0 0 488.85 488.85" id="icon-show" preserveAspectRatio="xMidYMid">
    <path d="M244.425,98.725c-93.4,0-178.1,51.1-240.6,134.1c-5.1,6.8-5.1,16.3,0,23.1c62.5,83.1,147.2,134.2,240.6,134.2
    s178.1-51.1,240.6-134.1c5.1-6.8,5.1-16.3,0-23.1C422.525,149.825,337.825,98.725,244.425,98.725z M251.125,347.025
    c-62,3.9-113.2-47.2-109.3-109.3c3.2-51.2,44.7-92.7,95.9-95.9c62-3.9,113.2,47.2,109.3,109.3
    C343.725,302.225,302.225,343.725,251.125,347.025z M248.025,299.625c-33.4,2.1-61-25.4-58.8-58.8c1.7-27.6,24.1-49.9,51.7-51.7
    c33.4-2.1,61,25.4,58.8,58.8C297.925,275.625,275.525,297.925,248.025,299.625z"/>
  </symbol>

  <!-- NEXT01 -->
  <symbol viewBox="0 0 100 100" id="icon-next01" preserveAspectRatio="xMidYMid">
    <path d="M4.761,2.743,3.314,1.8,2.14,1.034.64.091C.317-.12,0,.049,0,.467V5.783c0,.417.317.587.64.377l1.473-.943c.323-.21.865-.554,1.188-.765l1.454-.943A.424.424,0,0,0,4.761,2.743Z"/>
  </symbol>

  <!-- PLUS -->
  <symbol viewBox="0 0 448 448" id="icon-plus" preserveAspectRatio="xMidYMid">
    <path d="m408 184h-136c-4.417969 0-8-3.582031-8-8v-136c0-22.089844-17.910156-40-40-40s-40 17.910156-40 40v136c0 4.417969-3.582031 8-8 8h-136c-22.089844 0-40 17.910156-40 40s17.910156 40 40 40h136c4.417969 0 8 3.582031 8 8v136c0 22.089844 17.910156 40 40 40s40-17.910156 40-40v-136c0-4.417969 3.582031-8 8-8h136c22.089844 0 40-17.910156 40-40s-17.910156-40-40-40zm0 0"/>
  </symbol>

  <!-- REORDER -->
  <symbol viewBox="0 0 15 15" id="icon-reorder" preserveAspectRatio="xMidYMid">
    <path d="M6.6,12.394H5.442a.269.269,0,0,0-.193.454l2.059,2.118a.269.269,0,0,0,.384,0l2.059-2.118a.267.267,0,0,0-.193-.454H8.4V8.445h3.95V9.6A.269.269,0,0,0,12.8,9.8l2.118-2.059a.269.269,0,0,0,0-.384L12.8,5.3a.267.267,0,0,0-.454.193v1.16H8.395V2.7h1.16a.269.269,0,0,0,.193-.454L7.689.131a.269.269,0,0,0-.384,0L5.246,2.248a.267.267,0,0,0,.193.454H6.6v3.95H2.652V5.492A.269.269,0,0,0,2.2,5.3L.081,7.358a.269.269,0,0,0,0,.384L2.2,9.8a.267.267,0,0,0,.454-.193V8.448H6.6v3.947Z" />
  </symbol>

  <!-- GRID BIG -->
  <symbol viewBox="0 0 100 100" id="icon-grid-big" preserveAspectRatio="xMidYMid">
    <rect x="5" y="5" width="90" height="40"/>
    <rect x="5" y="55" width="90" height="40"/>
  </symbol>

  <!-- GRID SMALL -->
  <symbol viewBox="0 0 100 100" id="icon-grid-small" preserveAspectRatio="xMidYMid">
    <rect x="5" y="5" width="90" height="13.24"/>
    <rect x="5" y="30.15" width="90" height="13.24"/>
    <rect x="5" y="56.62" width="90" height="13.24"/>
    <rect x="5" y="81.76" width="90" height="13.24"/>
  </symbol>

  <!-- ARROW LEFT -->
  <symbol viewBox="0 0 20 20" id="icon-arrow-left" preserveAspectRatio="xMidYMid">
    <path d="M10,0A10,10,0,1,1,0,10,10,10,0,0,1,10,0ZM7.42,13.694l1.743,1.743,3.694-3.694L14.6,10,12.857,8.257,9.163,4.563,7.42,6.306,11.11,10Z"/>
  </symbol>

  <!-- CAT - Lock -->
  <symbol viewBox="0 0 150 150" id="icon-cat-lock" preserveAspectRatio="xMidYMid">
    <path class="st0" d="M146.25,150H3.75C1.68,150,0,148.32,0,146.25V3.75C0,1.68,1.68,0,3.75,0h142.5c2.07,0,3.75,1.68,3.75,3.75
      v142.5C150,148.32,148.32,150,146.25,150z M7.5,142.5h135V7.5H7.5V142.5z"/>
    <path class="st0" d="M96.09,55.78v-8.44c0-11.65-9.44-21.09-21.09-21.09s-21.09,9.44-21.09,21.09v8.44H41.25v57.06l26.2,13.1
      c4.82,2.08,10.28,2.08,15.1,0l26.2-13.1V55.78H96.09z M62.34,47.34c0-6.99,5.67-12.66,12.66-12.66s12.66,5.67,12.66,12.66v8.44
      H62.34V47.34z M100.31,107.62L78.77,118.4c-1.2,0.48-2.48,0.71-3.77,0.67c-1.28,0.04-2.56-0.19-3.75-0.67l-21.56-10.77V64.22h50.63
      v43.4H100.31z"/>
    <path class="st0" d="M79.22,93.75c0,2.33-1.89,4.22-4.22,4.22s-4.22-1.89-4.22-4.22v-8.44c0-2.33,1.89-4.22,4.22-4.22
      s4.22,1.89,4.22,4.22V93.75z"/>
  </symbol>

  <!-- CAT - Content -->
  <symbol viewBox="0 0 150 150" id="icon-cat-content" preserveAspectRatio="xMidYMid">
    <path class="st0" d="M146.25,150H3.75C1.68,150,0,148.32,0,146.25V3.75C0,1.68,1.68,0,3.75,0h142.5c2.07,0,3.75,1.68,3.75,3.75
      v142.5C150,148.32,148.32,150,146.25,150z M7.5,142.5h135V7.5H7.5V142.5z"/>
    <path class="st0" d="M63.75,30h-37.5c-2.07,0-3.75-1.68-3.75-3.75s1.68-3.75,3.75-3.75h37.5c2.07,0,3.75,1.68,3.75,3.75
      S65.82,30,63.75,30z"/>
    <path class="st0" d="M63.75,48.75h-37.5c-2.07,0-3.75-1.68-3.75-3.75s1.68-3.75,3.75-3.75h37.5c2.07,0,3.75,1.68,3.75,3.75
      S65.82,48.75,63.75,48.75z"/>
    <path class="st0" d="M63.75,67.5h-37.5c-2.07,0-3.75-1.68-3.75-3.75S24.18,60,26.25,60h37.5c2.07,0,3.75,1.68,3.75,3.75
      S65.82,67.5,63.75,67.5z"/>
    <path class="st0" d="M123.75,67.5h-37.5c-2.07,0-3.75-1.68-3.75-3.75v-37.5c0-2.07,1.68-3.75,3.75-3.75h37.5
      c2.07,0,3.75,1.68,3.75,3.75v37.5C127.5,65.82,125.82,67.5,123.75,67.5z M90,60h30V30H90V60z"/>
    <path class="st0" d="M123.75,127.5h-37.5c-2.07,0-3.75-1.68-3.75-3.75s1.68-3.75,3.75-3.75h37.5c2.07,0,3.75,1.68,3.75,3.75
      S125.82,127.5,123.75,127.5z"/>
    <path class="st0" d="M123.75,108.75h-37.5c-2.07,0-3.75-1.68-3.75-3.75s1.68-3.75,3.75-3.75h37.5c2.07,0,3.75,1.68,3.75,3.75
      S125.82,108.75,123.75,108.75z"/>
    <path class="st0" d="M123.75,90h-37.5c-2.07,0-3.75-1.68-3.75-3.75s1.68-3.75,3.75-3.75h37.5c2.07,0,3.75,1.68,3.75,3.75
      S125.82,90,123.75,90z"/>
    <path class="st0" d="M63.75,127.5h-37.5c-2.07,0-3.75-1.68-3.75-3.75v-37.5c0-2.07,1.68-3.75,3.75-3.75h37.5
      c2.07,0,3.75,1.68,3.75,3.75v37.5C67.5,125.82,65.82,127.5,63.75,127.5z M30,120h30V90H30V120z"/>
  </symbol>

  <!-- CAT - Header -->
  <symbol viewBox="0 0 150 150" id="icon-cat-header" preserveAspectRatio="xMidYMid">
    <path class="st0" d="M146.25,150H3.75C1.68,150,0,148.32,0,146.25V3.75C0,1.68,1.68,0,3.75,0h142.5c2.07,0,3.75,1.68,3.75,3.75
    v142.5C150,148.32,148.32,150,146.25,150z M7.5,142.5h135V7.5H7.5V142.5z"/>
    <path class="st0" d="M24.37,130.02c-0.96,0-1.91-0.36-2.64-1.09c-1.47-1.46-1.48-3.83-0.02-5.3l97.5-98.14
  c1.46-1.47,3.83-1.48,5.3-0.02s1.48,3.83,0.01,5.3l-97.5,98.15C26.3,129.65,25.33,130.02,24.37,130.02z"/>
  </symbol>

  <!-- CAT - Form -->
  <symbol viewBox="0 0 150 150" id="icon-cat-form" preserveAspectRatio="xMidYMid">
    <path class="st0" d="M146.25,150H3.75C1.68,150,0,148.32,0,146.25V3.75C0,1.68,1.68,0,3.75,0h142.5c2.07,0,3.75,1.68,3.75,3.75
      v142.5C150,148.32,148.32,150,146.25,150z M7.5,142.5h135V7.5H7.5V142.5z"/>
    <path class="st0" d="M75.45,30h-49.2c-2.07,0-3.75-1.68-3.75-3.75s1.68-3.75,3.75-3.75h49.2c2.07,0,3.75,1.68,3.75,3.75
      S77.52,30,75.45,30z"/>
    <path class="st0" d="M75.45,48.75h-49.2c-2.07,0-3.75-1.68-3.75-3.75s1.68-3.75,3.75-3.75h49.2c2.07,0,3.75,1.68,3.75,3.75
      S77.52,48.75,75.45,48.75z"/>
    <path class="st0" d="M45.42,128.07h-18.9c-2.07,0-3.75-1.68-3.75-3.75s1.68-3.75,3.75-3.75h18.9c2.07,0,3.75,1.68,3.75,3.75
      S47.49,128.07,45.42,128.07z"/>
    <path class="st0" d="M105,101.25H26.25c-2.07,0-3.75-1.68-3.75-3.75V63.75c0-2.07,1.68-3.75,3.75-3.75H105
      c2.07,0,3.75,1.68,3.75,3.75V97.5C108.75,99.57,107.07,101.25,105,101.25z M30,93.75h71.25V67.5H30V93.75z"/>
  </symbol>

  <!-- REORDER -->
  <symbol viewBox="0 0 64 64" id="icon-reorder" preserveAspectRatio="xMidYMid">
    <path fill="#1D1D1B" d="m63.875,31.203c-0.102-0.246-0.248-0.467-0.435-0.652l-6.837-6.838c-0.783-0.783-2.051-0.783-2.834,0-0.781,0.781-0.781,2.05 0,2.832l3.42,3.42-23.16-.001 .002-23.155 3.568,3.57c0.393,0.392 0.904,0.588 1.418,0.588 0.512,0 1.025-0.196 1.416-0.588 0.783-0.781 0.783-2.051 0-2.834l-6.988-6.99c-0.186-0.186-0.406-0.332-0.652-0.434-0.49-0.203-1.041-0.203-1.531,0-0.244,0.101-0.463,0.246-0.646,0.429 0,0-0.002,0.002-0.004,0.003l-6.844,6.84c-0.781,0.783-0.781,2.051 0,2.834 0.393,0.391 0.904,0.587 1.418,0.587 0.512,0 1.025-0.196 1.416-0.587l3.422-3.42-.002,23.157-23.15-.001 3.417-3.418c0.781-0.782 0.781-2.051 0-2.832-0.783-0.783-2.051-0.783-2.834,0l-6.838,6.84c-0.393,0.391-0.588,0.903-0.588,1.416s0.195,1.025 0.588,1.417l6.988,6.989c0.392,0.393 0.904,0.588 1.417,0.588s1.025-0.195 1.417-0.588c0.782-0.783 0.782-2.051 0-2.833l-3.571-3.571 23.153,.001-.001,23.153-3.418-3.417c-0.783-0.78-2.051-0.782-2.834,0.001-0.781,0.783-0.781,2.052 0,2.834l6.844,6.839c0.391,0.392 0.904,0.587 1.416,0.587 0.513,0 1.025-0.195 1.416-0.587l6.99-6.991c0.783-0.783 0.783-2.053 0-2.834-0.783-0.783-2.051-0.783-2.834,0l-3.572,3.574 .002-23.159 23.16,.001-3.57,3.569c-0.781,0.782-0.781,2.05 0,2.833 0.393,0.393 0.904,0.588 1.418,0.588 0.512,0 1.025-0.195 1.416-0.588l6.989-6.989c0.004-0.005 0.006-0.012 0.012-0.017 0.177-0.182 0.321-0.396 0.421-0.633 0.102-0.246 0.154-0.506 0.154-0.768-0.001-0.259-0.053-0.52-0.155-0.765z"/>
  </symbol>

  <!-- INFO -->
  <symbol viewBox="0 0 23.625 23.625" id="icon-information">
    <path d="M11.812 0C5.289 0 0 5.289 0 11.812s5.289 11.813 11.812 11.813 11.813-5.29 11.813-11.813S18.335 0 11.812 0zm2.459 18.307c-.608.24-1.092.422-1.455.548-.362.126-.783.189-1.262.189-.736 0-1.309-.18-1.717-.539s-.611-.814-.611-1.367c0-.215.015-.435.045-.659.031-.224.08-.476.147-.759l.761-2.688c.067-.258.125-.503.171-.731.046-.23.068-.441.068-.633 0-.342-.071-.582-.212-.717-.143-.135-.412-.201-.813-.201-.196 0-.398.029-.605.09-.205.063-.383.12-.529.176l.201-.828c.498-.203.975-.377 1.43-.521.455-.146.885-.218 1.29-.218.731 0 1.295.178 1.692.53.395.353.594.812.594 1.376 0 .117-.014.323-.041.617-.027.295-.078.564-.152.811l-.757 2.68c-.062.215-.117.461-.167.736-.049.275-.073.485-.073.626 0 .356.079.599.239.728.158.129.435.194.827.194.185 0 .392-.033.626-.097.232-.064.4-.121.506-.17l-.203.827zm-.134-10.878c-.353.328-.778.492-1.275.492-.496 0-.924-.164-1.28-.492-.354-.328-.533-.727-.533-1.193 0-.465.18-.865.533-1.196.356-.332.784-.497 1.28-.497.497 0 .923.165 1.275.497.353.331.53.731.53 1.196 0 .467-.177.865-.53 1.193z"/>
  </symbol>

  <!-- LAYERS -->
  <symbol viewBox="0 0 18 18" id="icon-layers">
    <path id="Path_323" class="st0" d="M16,10.7l-8.2,4.7v0.3c0,0.5-0.1,0.9-0.4,1.3h8.3c0.7,0,1.3-0.6,1.3-1.3V12
      C17,11.4,16.6,10.8,16,10.7z"/>
    <path id="Path_324" class="st0" d="M15.7,8.2l-1.3-2.4c-0.3-0.5-1-0.8-1.6-0.6l-5,8.7v0.4l7.5-4.3C15.9,9.6,16.1,8.8,15.7,8.2
      C15.7,8.2,15.7,8.2,15.7,8.2z"/>
    <path id="Path_325" class="st0" d="M12,4c0-0.4-0.3-0.7-0.6-0.8L9,1.8C8.6,1.6,8.2,1.6,7.8,1.7V12l4.1-7C12,4.7,12.1,4.3,12,4z"/>
    <path id="Path_326" class="st0" d="M5.5,1H2.3C1.6,1,1,1.6,1,2.3l0,0v13.4C1,16.4,1.6,17,2.3,17h0h3.2c0.7,0.1,1.3-0.5,1.4-1.2
      c0,0,0-0.1,0-0.1V2.3C6.9,1.6,6.3,1,5.6,1C5.6,1,5.5,1,5.5,1z M3.9,15C3.4,15,3,14.6,3,14.1c0-0.5,0.4-0.9,0.9-0.9s0.9,0.4,0.9,0.9
      l0,0C4.8,14.6,4.4,15,3.9,15z"/>
  </symbol>
</svg>
